<svg width="36" height="36" viewBox="0 0 36 36" fill="none" xmlns="http://www.w3.org/2000/svg">
<path fill-rule="evenodd" clip-rule="evenodd" d="M3.45183 32.6693H2V35H22.9089V32.6693H21.457V15.7689C22.0738 15.7716 22.6644 16.0182 23.0999 16.4549C23.5355 16.8916 23.7805 17.4828 23.7816 18.0996V26.6422C23.8745 27.9967 24.4908 29.2619 25.4999 30.1702C26.509 31.0785 27.8319 31.5587 29.1887 31.509C30.5454 31.4594 31.8297 30.8839 32.7698 29.9044C33.7099 28.9248 34.232 27.6179 34.2258 26.2603C34.2261 26.0295 34.211 25.799 34.1806 25.5703L32.5378 11.8795L34.5338 10.8897C33.5077 8.59713 32.025 6.53777 30.1763 4.83739C28.3277 3.13701 26.1518 1.8313 23.7816 1V3.33074C25.4163 3.96993 26.8592 5.01862 27.9718 6.37613C29.0844 7.73364 29.8294 9.35438 30.1352 11.0827L31.8683 25.7879C31.893 25.9442 31.9054 26.1021 31.9053 26.2603C31.905 27.0053 31.6184 27.7216 31.1047 28.2612C30.5911 28.8008 29.8896 29.1223 29.1456 29.1593C28.4015 29.1962 27.6717 28.9457 27.1071 28.4596C26.5425 27.9735 26.1864 27.2891 26.1123 26.5477V18.0996C26.1134 16.8649 25.6244 15.6803 24.7527 14.8059C23.881 13.9315 22.6979 13.4388 21.4632 13.4361V4.11312C21.4637 3.731 21.389 3.35251 21.2433 2.99927C21.0975 2.64603 20.8836 2.32495 20.6138 2.05436C20.344 1.78378 20.0235 1.56899 19.6707 1.42226C19.3179 1.27553 18.9396 1.19973 18.5575 1.19919H6.35755C5.97535 1.19946 5.59695 1.27507 5.244 1.42171C4.89105 1.56834 4.57047 1.78312 4.30059 2.05376C4.03072 2.3244 3.81685 2.64559 3.67121 2.99895C3.52557 3.35231 3.45102 3.73092 3.45183 4.11312V32.6693ZM5.77648 13.4361L19.1407 13.4361V3.52999H5.77648V13.4361ZM5.77641 15.7689H19.1407V32.6693H5.77641V15.7689Z" fill="black"/>
</svg>
